# xmcd
#
# Track frame offsets:
#	182
#	14275
#	26105
#	39662
#	53232
#	66220
#	80622
#	96052
#	110820
#	123520
#	136122
#	148057
#	161167
#	173727
#	184210
#	198185
#	211847
#	224990
#	240040
#	251762
#	264880
#	277305
#	292580
#	307860
#
# Disc length: 4283 seconds
#
# Revision: 2
# Processed by: cddbd v1.5.1PL0 Copyright (c) Steve Scherf et al.
# Submitted via: EasyCDDAExtractor 7.0.6.1
#
DISCID=6310b918
DTITLE=Ray Charles - Blues and Jazz [Disc 1]
DYEAR=1994
DGENRE=Blues
TTITLE0=Someday
TTITLE1=The Sun's Gonna Shine Again
TTITLE2=The Midnight Hour
TTITLE3=Worried Life Blues
TTITLE4=Low Society
TTITLE5=Losing Hand
TTITLE6=Sinner's Prayer
TTITLE7=Funny (But I Still Love You)
TTITLE8=Feelin' Sad
TTITLE9=I Wonder Who
TTITLE10=Nobody Cares
TTITLE11=Ray's Blues
TTITLE12=Mr. Charles' Blues
TTITLE13=Blackjack
TTITLE14=Come Back
TTITLE15=A Fool For You
TTITLE16=Hard Times (Nobody Knows Better Than I)
TTITLE17=Drown In My Own Tears
TTITLE18=What Would I Do Without You
TTITLE19=I Want a Little Girl
TTITLE20=Early in the Mornin'
TTITLE21=(Night Time Is) The Right Time)
TTITLE22=Two Years of Torture
TTITLE23=I Believe to My Soul
EXTD=
EXTT0=
EXTT1=
EXTT2=
EXTT3=
EXTT4=
EXTT5=
EXTT6=
EXTT7=
EXTT8=
EXTT9=
EXTT10=
EXTT11=
EXTT12=
EXTT13=
EXTT14=
EXTT15=
EXTT16=
EXTT17=
EXTT18=
EXTT19=
EXTT20=
EXTT21=
EXTT22=
EXTT23=
PLAYORDER=
